<svg width="1200" height="800" viewBox="0 0 1200 800" fill="none" xmlns="http://www.w3.org/2000/svg">
  <rect width="1200" height="800" rx="44" fill="#0F172A"/>
  <circle cx="220" cy="180" r="120" fill="#1D4ED8" fill-opacity="0.35"/>
  <circle cx="980" cy="620" r="170" fill="#10B981" fill-opacity="0.18"/>
  <rect x="120" y="120" width="960" height="560" rx="32" stroke="#E2E8F0" stroke-opacity="0.2" stroke-width="2"/>
  <path d="M210 250H490" stroke="#FBBF24" stroke-width="10" stroke-linecap="round"/>
  <path d="M210 325H430" stroke="#38BDF8" stroke-width="10" stroke-linecap="round"/>
  <path d="M210 400H540" stroke="#A78BFA" stroke-width="10" stroke-linecap="round"/>
  <path d="M210 475H470" stroke="#34D399" stroke-width="10" stroke-linecap="round"/>
  <rect x="640" y="190" width="300" height="110" rx="22" fill="#111827" stroke="#60A5FA" stroke-opacity="0.4"/>
  <rect x="690" y="335" width="250" height="110" rx="22" fill="#111827" stroke="#A78BFA" stroke-opacity="0.4"/>
  <rect x="640" y="480" width="320" height="110" rx="22" fill="#111827" stroke="#34D399" stroke-opacity="0.4"/>
  <path d="M500 250C560 250 585 245 640 245" stroke="#FBBF24" stroke-width="6" stroke-linecap="round" stroke-dasharray="12 14"/>
  <path d="M430 325C530 325 585 380 690 390" stroke="#38BDF8" stroke-width="6" stroke-linecap="round" stroke-dasharray="12 14"/>
  <path d="M540 475C600 475 620 535 640 535" stroke="#34D399" stroke-width="6" stroke-linecap="round" stroke-dasharray="12 14"/>
  <text x="210" y="610" fill="#F8FAFC" font-family="Inter, Arial, sans-serif" font-size="64" font-weight="700">LLM Job Flow</text>
  <text x="210" y="660" fill="#CBD5E1" font-family="Inter, Arial, sans-serif" font-size="28" font-weight="500">Queueing, orchestration, retries, and retrieval</text>
</svg>
