<svg height="800" width="800" version="1.2" fill="#909090" baseProfile="tiny" xmlns="http://www.w3.org/2000/svg" viewBox="0 0 256 256" xml:space="preserve">
  <path d="M237 19H19c-8.2 0-14.9 6.7-14.9 14.9v188.3c0 8.2 6.7 14.9 14.9 14.9h218c8.2 0 14.9-6.7 14.9-14.9V33.9c0-8.2-6.7-14.9-14.9-14.9m-37.2 9.9c5.4 0 9.9 4.5 9.9 9.9 0 5.5-4.5 9.9-9.9 9.9s-9.9-4.5-9.9-9.9 4.5-9.9 9.9-9.9m-27.2 0c5.4 0 9.9 4.5 9.9 9.9 0 5.5-4.5 9.9-9.9 9.9s-9.9-4.5-9.9-9.9 4.4-9.9 9.9-9.9m64.4 195H19V58.6h218zm-9.9-175.2c-5.4 0-9.9-4.5-9.9-9.9s4.5-9.9 9.9-9.9 9.9 4.5 9.9 9.9c0 5.5-4.5 9.9-9.9 9.9M96 74h76.1v14.4H96zm30 32.9h96.3v14.3H126zm0 28.6h96.3v14.3H126zm0 29h96.3v14.3H126zm-93.4 28.6h189.8v14.3H32.6zm0-86.2h67.8v70.7H32.6z"/>
</svg>
