<?xml version="1.0" encoding="utf-8"?>
<!-- Generator: Adobe Illustrator 16.0.0, SVG Export Plug-In . SVG Version: 6.00 Build 0)  -->
<!DOCTYPE svg PUBLIC "-//W3C//DTD SVG 1.1//EN" "http://www.w3.org/Graphics/SVG/1.1/DTD/svg11.dtd">
<svg version="1.1" id="v2" xmlns="http://www.w3.org/2000/svg" xmlns:xlink="http://www.w3.org/1999/xlink" x="0px" y="0px"
	 width="432px" height="432px" viewBox="0 0 432 432" enable-background="new 0 0 432 432" xml:space="preserve">
<g>
	<g>
		<path d="M286.9658203,283.5478516c-14.8027344,0-27.0742188,14.21875-27.0742188,31.7480469
			c0,13.6347656,7.4013672,38.7617188,29.8017578,38.7617188c9.1542969,0,17.3349609-3.8955078,22.9833984-11.1025391v-27.6591797
			C312.6767578,291.5332031,297.6787109,283.5478516,286.9658203,283.5478516z"/>
		<path d="M419.0214844,352.109375c-11.2978516,10.5185547-21.0361328,14.9980469-32.5283203,14.9980469
			c-14.4130859,0-26.2949219-7.2070312-26.2949219-25.515625v-38.1767578c0-15.3876953-3.5058594-16.9462891-15.5820312-16.9462891
			v-7.0117188l31.9433594-2.1425781v54.34375c0,14.8027344,6.0380859,21.6201172,17.7246094,21.6201172
			c8.5703125,0,15.3876953-2.7275391,24.7373047-10.1289062v-39.734375c0-15.3876953-3.3115234-16.9462891-16.7509766-16.9462891
			v-7.0117188L432,277.5332031V18c0,0,0-18-16.9990234-18h-396C19.0009766,0,0,0,0,18v53.6328125h22.2739258v7.4013672
			c-13.050293,3.1166992-11.2973633,13.050293-6.6225586,23.1787109l15.5820312,33.1123047
			c3.8959961,8.3754883,14.4135742,32.5283203,19.8676758,46.9418945l18.8935547-37.5922852L48.9584961,98.512207
			c-7.4018555-16.3613281-12.0761719-19.2832031-17.5302734-19.4780273v-7.4013672h45.1889648v7.4013672
			c-8.9599609,2.3374023-10.9077148,9.934082-7.012207,17.9199219l12.2709961,24.7368164l11.4916992-22.3994141
			c3.5063477-6.8173828,3.8959961-17.7250977-7.206543-20.2573242v-7.4013672h35.449707v7.4013672
			c-7.7910156,2.1425781-10.9077148,6.4277344-18.1142578,19.8676758l-17.3354492,32.3330078l16.9458008,34.28125
			c2.3374023,4.8691406,3.8955078,8.5703125,5.8432617,13.6342773l29.9960938-68.9516602
			c7.4013672-16.7509766,6.0380859-29.2167969-7.9863281-31.1645508v-7.4013672H170.5v7.4013672
			c-7.0117188,0.9741211-11.8813477,6.4277344-17.1401367,18.5039062l-39.5400391,90.5722656
			c-2.3374023,5.2587891-5.2592773,13.6342773-6.0380859,18.6982422h-9.1547852
			c-0.9741211-4.6738281-2.5322266-8.5698242-3.8955078-11.296875l-20.4516602-41.6826172l-14.6083984,28.4379883
			c-2.5322266,5.0639648-9.5444336,18.6987305-10.128418,24.5415039H39.2197266
			c-0.7792969-5.0639648-4.8696289-14.9975586-7.7915039-21.6201172L0,115.1889648V414c0,0,0,18,18,18h396c0,0,18,0,18-18
			v-49.2832031l-12.9785156,2.390625V352.109375z M351.7685547,69.1005859c5.84375,0,10.5195312,4.6748047,10.5195312,10.5180664
			s-4.6757812,10.5180664-10.5195312,10.5180664c-5.8417969,0-10.5175781-4.6748047-10.5175781-10.5180664
			S345.9267578,69.1005859,351.7685547,69.1005859z M329.5654297,124.2231445l26.2949219-9.5444336h4.8691406v67.1987305
			c0,10.7128906,5.0644531,15.387207,12.0761719,15.5820312v7.012207h-42.4609375v-7.012207
			c7.4003906,0,14.0234375-4.4794922,14.0234375-14.21875v-47.1362305l-14.8027344-7.4018555V124.2231445z M266.1542969,123.8334961
			v-7.012207h48.3046875v7.012207c-7.4023438,0-16.3613281,5.8432617-26.2949219,14.4135742l-17.9199219,15.1928711
			l48.3046875,42.8510742v8.1806641h-14.9980469c-4.4804688-2.921875-7.4023438-5.0644531-10.5175781-8.1806641
			l-38.7617188-37.7871094l18.5039062-17.140625C283.8789062,131.2348633,279.9824219,123.8334961,266.1542969,123.8334961z
			 M224.859375,197.4594727c5.2597656,0,12.4667969-4.2851562,12.4667969-14.21875V89.7470703l-12.4667969-6.8173828v-4.4794922
			l23.9589844-9.3496094H253.6875v113.7504883c0,8.7651367,4.2851562,14.6083984,14.21875,14.6083984v7.012207h-43.046875
			V197.4594727z M190.1655273,69.1005859c5.84375,0,10.5175781,4.6748047,10.5175781,10.5180664
			s-4.6738281,10.5180664-10.5175781,10.5180664s-10.5185547-4.6748047-10.5185547-10.5180664
			S184.3217773,69.1005859,190.1655273,69.1005859z M167.9609375,124.2231445l26.2944336-9.5444336h4.8701172v67.1987305
			c0,10.7128906,5.0644531,15.387207,12.0761719,15.5820312v7.012207h-42.4619141v-7.012207
			c7.4013672,0,14.0244141-4.4794922,14.0244141-14.21875v-47.1362305l-14.8032227-7.4018555V124.2231445z M223.28125,364.9648438
			H108.9462891v-7.4013672c14.8027344,0,20.8413086-5.6484375,20.8413086-19.8671875v-78.3017578
			c0-12.8554688-5.0644531-19.8671875-20.8413086-19.8671875v-7.4013672h112.5810547v29.6064453h-7.0112305
			c-7.012207-17.5302734-16.9458008-21.2314453-33.1123047-21.2314453h-31.1645508v51.0322266h26.1000977
			c18.309082,0,25.1264648-4.8691406,26.1005859-18.6982422h7.9858398v46.9414062h-7.9858398
			c-2.3374023-14.8037109-8.9599609-19.8671875-25.7109375-19.8671875h-26.4897461v32.1376953
			c0,18.6992188,5.2587891,24.5429688,22.7890625,24.5429688h9.7387695c21.6206055,0,31.359375-5.84375,40.5141602-24.1533203
			h8.7646484L223.28125,364.9648438z M343.0625,361.6533203l-25.5166016,5.4541016h-4.8691406v-14.6083984
			c-10.1289062,9.5439453-21.6201172,14.6083984-32.5283203,14.6083984c-20.4511719,0-36.6181641-18.5039062-36.6181641-41.6826172
			c0-27.4638672,21.6201172-50.2529297,47.5263672-50.2529297c6.0380859,0,12.6601562,1.1689453,21.6201172,3.7011719v-29.4121094
			l-14.21875-7.7910156v-4.4794922l25.7109375-7.5966797h4.8691406v115.3085938
			c0,8.5703125,4.2851562,11.8818359,14.0244141,8.9599609V361.6533203z"/>
	</g>
	<path fill="#FFFFFF" d="M0,71.6328125"/>
	<path fill="#FFFFFF" d="M0,115.1889648"/>
	<path fill="#FFFFFF" d="M432,364.7167969"/>
	<path fill="#FFFFFF" d="M432,277.5332031"/>
</g>
</svg>
