<svg width="531" height="91" viewBox="0 0 531 91" fill="none" xmlns="http://www.w3.org/2000/svg">
<path d="M78.016 5.872V89.712L60.096 86L18.624 27.376L18.88 89.712L0.960001 86V0.752004L18.624 5.872L60.096 63.856V0.752004L78.016 5.872ZM100.568 41.072L93.656 29.424C99.6293 27.888 106.243 26.4373 113.496 25.072C120.835 23.7067 125.443 23.0667 127.32 23.152C129.197 23.2373 132.952 26.0533 138.584 31.6C144.216 37.0613 148.013 41.2427 149.976 44.144C150.659 45.168 151 48.624 151 54.512C151 60.3147 150.872 66.9707 150.616 74.48C150.445 81.9893 150.403 87.0667 150.488 89.712L134.616 86L134.744 79.472C127.832 86.384 122.2 89.84 117.848 89.84C113.752 89.7547 108.547 85.872 102.232 78.192C95.9173 70.512 92.76 65.008 92.76 61.68C92.76 59.0347 94.552 56.6027 98.136 54.384C101.72 52.1653 106.072 50.4587 111.192 49.264C116.397 47.984 121.005 47.0027 125.016 46.32C129.027 45.6373 132.44 45.168 135.256 44.912L135.384 41.456C135.469 37.36 133.293 35.1413 128.856 34.8C124.76 34.544 116.141 36.3787 103 40.304H102.872L102.744 40.432H102.616H102.488L102.36 40.56H102.232H102.104L101.976 40.688H101.848H101.72L101.592 40.816H101.464H101.336H101.208L101.08 40.944H100.952H100.824L100.696 41.072H100.568ZM106.968 73.2C107.736 74.3947 109.187 75.1627 111.32 75.504C113.453 75.8453 116.653 75.2907 120.92 73.84C125.272 72.304 129.965 69.6587 135 65.904L135.128 54.64C112.6 61.2107 103.213 67.3973 106.968 73.2ZM182.189 28.4V31.856C188.248 25.968 193.837 23.1947 198.957 23.536C200.578 23.6213 203.224 25.1573 206.893 28.144C210.562 31.0453 214.061 34.288 217.389 37.872C225.41 27.888 232.834 23.1093 239.661 23.536C242.392 23.7067 247.17 27.12 253.997 33.776C260.909 40.3467 264.578 44.8267 265.005 47.216C265.346 49.4347 265.517 63.6 265.517 89.712L249.645 86.128C250.157 56.7733 249.944 41.2427 249.005 39.536C247.981 37.6587 246.488 36.6773 244.525 36.592C242.648 36.5067 240.557 37.1467 238.253 38.512C236.034 39.8773 233.773 41.6267 231.469 43.76C229.165 45.808 226.861 48.1547 224.557 50.8C224.728 55.4933 224.813 68.464 224.813 89.712L208.941 86.128C209.453 56.7733 209.24 41.2427 208.301 39.536C207.021 37.6587 205.4 36.6773 203.437 36.592C201.56 36.5067 199.341 37.3173 196.781 39.024C194.221 40.6453 191.704 42.6507 189.229 45.04C186.84 47.344 184.493 49.9467 182.189 52.848V89.712L166.189 86.128V24.816L182.189 28.4ZM284.943 41.072L278.031 29.424C284.004 27.888 290.618 26.4373 297.871 25.072C305.21 23.7067 309.818 23.0667 311.695 23.152C313.572 23.2373 317.327 26.0533 322.959 31.6C328.591 37.0613 332.388 41.2427 334.351 44.144C335.034 45.168 335.375 48.624 335.375 54.512C335.375 60.3147 335.247 66.9707 334.991 74.48C334.82 81.9893 334.778 87.0667 334.863 89.712L318.991 86L319.119 79.472C312.207 86.384 306.575 89.84 302.223 89.84C298.127 89.7547 292.922 85.872 286.607 78.192C280.292 70.512 277.135 65.008 277.135 61.68C277.135 59.0347 278.927 56.6027 282.511 54.384C286.095 52.1653 290.447 50.4587 295.567 49.264C300.772 47.984 305.38 47.0027 309.391 46.32C313.402 45.6373 316.815 45.168 319.631 44.912L319.759 41.456C319.844 37.36 317.668 35.1413 313.231 34.8C309.135 34.544 300.516 36.3787 287.375 40.304H287.247L287.119 40.432H286.991H286.863L286.735 40.56H286.607H286.479L286.351 40.688H286.223H286.095L285.967 40.816H285.839H285.711H285.583L285.455 40.944H285.327H285.199L285.071 41.072H284.943ZM291.343 73.2C292.111 74.3947 293.562 75.1627 295.695 75.504C297.828 75.8453 301.028 75.2907 305.295 73.84C309.647 72.304 314.34 69.6587 319.375 65.904L319.503 54.64C296.975 61.2107 287.588 67.3973 291.343 73.2ZM395.748 29.04L394.34 35.952C386.063 34.0747 380.601 33.3067 377.956 33.648C373.775 34.16 370.489 36.208 368.1 39.792C365.711 43.2907 364.857 46.6613 365.54 49.904C365.711 50.672 367.673 50.5867 371.428 49.648C375.183 48.7093 379.279 47.7707 383.716 46.832C388.153 45.808 391.012 45.6373 392.292 46.32C398.18 49.392 402.148 53.4453 404.196 58.48C406.244 63.5147 406.457 68.336 404.836 72.944C403.3 77.4667 400.1 81.392 395.236 84.72C390.372 88.048 384.527 89.712 377.7 89.712C372.068 89.712 366.82 88.176 361.956 85.104C357.177 81.9467 351.545 77.2533 345.06 71.024L347.364 66.672C353.167 71.024 359.311 73.968 365.796 75.504C372.281 76.9547 378.297 76.3573 383.844 73.712C389.476 71.0667 393.231 66.2027 395.108 59.12C395.193 58.7787 394.809 58.6507 393.956 58.736C393.017 58.8213 390.671 59.376 386.916 60.4C375.055 63.5573 367.503 64.496 364.26 63.216L363.108 62.576C358.415 58.992 354.617 55.0667 351.716 50.8C349.583 47.8987 348.687 44.8267 349.028 41.584C349.455 38.3413 350.564 35.3973 352.356 32.752C354.148 30.0213 356.836 27.8027 360.42 26.096C364.004 24.304 367.929 23.408 372.196 23.408C373.476 23.408 375.268 23.664 377.572 24.176C379.961 24.688 383.289 25.584 387.556 26.864C391.908 28.0587 394.639 28.784 395.748 29.04ZM414.12 33.776L410.28 24.816H420.776V10.992L436.52 14.576V24.816H452.136L455.976 33.776H436.52V50.032C436.52 50.9707 436.52 52.3787 436.52 54.256C436.52 56.56 436.477 58.864 436.392 61.168C436.392 63.472 436.52 65.648 436.776 67.696C437.117 69.744 437.501 71.6213 437.928 73.328C438.355 75.0347 439.08 76.4 440.104 77.424C441.128 78.448 442.365 79.1307 443.816 79.472C445.267 79.8133 447.101 79.6 449.32 78.832C451.624 77.9787 454.227 76.6133 457.128 74.736L460.584 78.704C455.635 83.2267 451.496 86.384 448.168 88.176C445.608 89.6267 442.067 89.3707 437.544 87.408C433.107 85.5307 429.181 82.8853 425.768 79.472C422.44 75.9733 420.776 72.944 420.776 70.384V33.776H414.12ZM484.245 60.528L513.301 40.688C507.157 36.7627 501.909 35.312 497.557 36.336C493.29 37.36 490.005 40.048 487.701 44.4C485.397 48.6667 484.245 54.0427 484.245 60.528ZM487.189 72.816C489.578 75.7173 492.266 77.5093 495.253 78.192C498.24 78.8747 501.354 78.4907 504.597 77.04C507.925 75.504 510.698 74.0107 512.917 72.56C515.136 71.024 517.738 69.0187 520.725 66.544L523.285 69.104C524.906 70.896 526.528 72.688 528.149 74.48L530.709 77.04C523.285 82.5013 517.013 86.128 511.893 87.92C506.773 89.7973 501.696 89.7973 496.661 87.92C489.322 85.104 482.41 80.1547 475.925 73.072C472.085 68.8053 469.866 63.7707 469.269 57.968C468.672 52.08 469.397 46.6187 471.445 41.584C473.578 36.5493 476.821 32.2827 481.173 28.784C485.61 25.2 490.432 23.408 495.637 23.408C499.05 23.408 504.085 25.6267 510.741 30.064C517.482 34.416 523.072 38.6827 527.509 42.864C527.424 43.12 524.01 45.7653 517.269 50.8C510.613 55.7493 503.914 60.656 497.173 65.52L487.189 72.816Z" fill="white"/>
</svg>
